<svg width="86" height="24" viewBox="0 0 86 24" fill="none" xmlns="http://www.w3.org/2000/svg">
<g clip-path="url(#clip0_1232_397)">
<path d="M62.1949 10.0555C60.6015 8.55318 59.0735 7.17919 57.6286 5.72476C56.8319 4.87043 56.0825 3.97406 55.3837 3.03959C54.6661 2.13889 54.608 1.5752 55.0938 0.857624C55.3382 0.497235 55.6965 0.227132 56.1125 0.0895445C56.5286 -0.0480426 56.979 -0.0453563 57.3934 0.0971771C58.7372 0.472084 60.0811 0.859617 61.4084 1.28504C69.1267 3.75584 76.3784 7.25962 83.487 11.0772C83.9539 11.3281 84.4186 11.5837 84.894 11.8173C85.2212 11.9476 85.5016 12.1719 85.6987 12.4613C85.8958 12.7507 86.0008 13.0919 85.9999 13.4409C86.0063 14.2143 85.5894 14.7149 84.9249 15.0871C80.2643 17.7285 75.3312 19.8684 70.2099 21.4702C66.4957 22.6043 62.6933 23.4336 58.8414 23.9496C57.6484 24.1138 57.047 23.8908 56.6577 23.1606C56.2377 22.3735 56.3909 21.6058 57.167 20.7509C58.9811 18.7523 60.7988 16.757 62.6199 14.7651C62.8551 14.5058 63.0798 14.2359 63.4998 13.7517C62.3219 13.7517 61.3832 13.7733 60.4476 13.7484C49.0882 13.4456 37.7297 13.0753 26.3686 12.8487C18.1386 12.6956 9.90762 13.093 1.7318 14.0382C0.666473 14.1598 0.174636 13.8647 0.0264734 13.0431C-0.120003 12.2295 0.314727 11.6761 1.32059 11.4441C8.90149 9.69518 16.6 8.95767 24.3673 8.82937C34.5358 8.66153 44.6791 9.27441 54.8263 9.78093C57.257 9.90192 59.688 9.9634 62.1949 10.0555ZM61.5072 5.19963C62.9821 6.63311 64.4418 8.08222 65.9439 9.48712C66.2866 9.7911 66.6991 10.0078 67.1456 10.1186C68.1071 10.3629 68.7918 11.0183 68.559 11.9353C68.3364 12.9 67.908 13.8066 67.3025 14.5942C65.9291 16.2527 64.383 17.7716 62.9071 19.347C69.112 18.3832 74.8145 16.1863 80.4328 13.3798C74.2901 10.1276 68.1038 7.28255 61.5072 5.19963Z" fill="#081163"/>
</g>
<defs>
<clipPath id="clip0_1232_397">
<rect width="24" height="86" fill="white" transform="translate(86) rotate(90)"/>
</clipPath>
</defs>
</svg>
