<svg width="140" height="140" viewBox="0 0 140 140" fill="none" xmlns="http://www.w3.org/2000/svg">
<rect width="140" height="140" rx="70" fill="#C12928"/>
<g clip-path="url(#clip0_1627_8)">
<path d="M54.6992 64.5116C56.4479 61.1613 58.6058 58.0413 61.1235 55.2233C64.3547 51.5803 67.9798 48.395 72.1641 45.8787C76.0764 43.5256 80.3169 42.0226 84.7672 41.081C88.6929 40.2622 92.7007 39.9048 96.7092 40.0159C97.1855 40.0273 97.6618 40.0552 98.1345 40.1026C98.8432 40.1657 99.5069 40.4767 100.009 40.9809C100.511 41.4852 100.82 42.1503 100.88 42.8595C101.093 45.8706 101.004 48.8955 100.614 51.8889C100.098 56.5873 98.8396 61.1739 96.885 65.4772C94.5347 70.5582 91.1017 74.8401 87.077 78.6743C83.9968 81.6329 80.5233 84.1523 76.7547 86.161C76.6499 86.2163 76.5442 86.2694 76.4784 86.304L54.6992 64.5116ZM72.8631 59.1821C72.8548 60.3545 73.0786 61.5169 73.5216 62.6023C73.9645 63.6877 74.6178 64.6747 75.4439 65.5063C76.2699 66.3379 77.2524 66.9978 78.3345 67.4477C79.4167 67.8977 80.5772 68.1289 81.7492 68.1281C82.9214 68.1344 84.0835 67.9095 85.1688 67.4661C86.2541 67.0228 87.2414 66.3698 88.0742 65.5445C88.9071 64.7192 89.5691 63.7377 90.0225 62.6562C90.4758 61.5747 90.7117 60.4144 90.7164 59.2417C90.7187 56.8729 89.7827 54.5997 88.1134 52.9197C86.4441 51.2397 84.1775 50.2897 81.8096 50.2776C80.6376 50.274 79.4763 50.5015 78.3922 50.9471C77.308 51.3928 76.3224 52.0478 75.4915 52.8748C74.6606 53.7018 74.0008 54.6845 73.5498 55.7668C73.0988 56.849 72.8654 58.0096 72.8631 59.1821Z" fill="white"/>
<path d="M53.0362 68.1484L72.8288 87.9489C72.7204 87.9999 72.5747 88.0787 72.4218 88.1395C70.2602 88.9812 68.0186 89.601 65.7317 89.9892C65.2513 90.0862 64.7543 90.0618 64.2857 89.9182C63.8171 89.7746 63.3917 89.5163 63.048 89.1668C59.3046 85.445 55.5729 81.7112 51.8528 77.9654C51.0758 77.1825 50.8514 76.2096 51.0474 75.1096C51.4711 72.7274 52.1376 70.3949 53.0362 68.1484Z" fill="white"/>
<path d="M67.0078 93.3907C73.4698 92.1254 79.181 89.3568 84.5342 85.4766C84.3615 87.5202 84.2627 89.4199 84.0207 91.3011C83.854 92.5947 83.1053 93.6135 82.0131 94.3396C78.941 96.3816 75.8782 98.434 72.7834 100.439C70.7141 101.779 68.1526 100.595 67.7549 98.157C67.5001 96.5943 67.2638 95.0286 67.0078 93.3907Z" fill="white"/>
<path d="M47.6165 73.9897C45.8608 73.7129 44.1824 73.5213 42.5377 73.1711C42.0339 73.0663 41.5631 72.8408 41.1655 72.514C40.768 72.1871 40.4556 71.7687 40.2552 71.2946C40.0547 70.8205 39.9723 70.3048 40.0148 69.7918C40.0573 69.2788 40.2236 68.7837 40.4994 68.3491C42.5456 65.1381 44.6658 61.9736 46.7953 58.8169C47.168 58.2609 47.6642 57.7988 48.2451 57.4667C48.8261 57.1347 49.476 56.9416 50.144 56.9028C51.8805 56.7492 53.6195 56.6207 55.5171 56.4688C51.6464 61.812 48.872 67.5351 47.6165 73.9897Z" fill="white"/>
<path d="M52.7311 86.1914C53.7075 86.2391 54.2433 86.5226 54.5715 87.1403C54.7349 87.4269 54.8125 87.7543 54.7953 88.0838C54.778 88.4132 54.6665 88.7307 54.4741 88.9986C54.3603 89.1612 54.2302 89.3116 54.0857 89.4475C50.4672 93.0697 46.8479 96.6909 43.2277 100.311C42.7024 100.838 42.1056 101.128 41.3523 100.922C41.0673 100.849 40.8047 100.707 40.5882 100.508C40.3717 100.309 40.2082 100.06 40.1124 99.7815C40.0165 99.5035 39.9914 99.2059 40.0392 98.9157C40.0871 98.6255 40.2064 98.3518 40.3864 98.1192C40.4845 97.9945 40.5918 97.8772 40.7072 97.7683C44.3259 94.147 47.949 90.5294 51.5763 86.9154C51.9461 86.5497 52.477 86.3465 52.7311 86.1914Z" fill="white"/>
<path d="M60.2681 93.3812C60.039 93.8022 59.8895 94.3006 59.5678 94.6313C57.6749 96.577 55.7507 98.4922 53.8184 100.399C53.6555 100.574 53.4587 100.714 53.24 100.811C53.0212 100.907 52.7851 100.958 52.546 100.961C52.3069 100.963 52.0698 100.917 51.8492 100.825C51.6285 100.732 51.4289 100.596 51.2625 100.425C51.0925 100.257 50.9584 100.056 50.8683 99.8343C50.7783 99.6129 50.7341 99.3755 50.7386 99.1364C50.743 98.8974 50.796 98.6618 50.8943 98.4439C50.9925 98.226 51.134 98.0303 51.3102 97.8687C53.2203 95.9396 55.1389 94.0192 57.066 92.1074C57.3112 91.8429 57.6325 91.6612 57.9854 91.5875C58.3384 91.5138 58.7055 91.5517 59.036 91.6959C59.7071 91.953 60.1326 92.5955 60.2681 93.3812Z" fill="white"/>
<path d="M49.5722 82.7167C49.339 83.1344 49.1823 83.6266 48.8601 83.9575C46.9804 85.8873 45.0683 87.7875 43.1533 89.6839C42.3872 90.4427 41.3174 90.4543 40.5973 89.7534C39.859 89.0361 39.8638 87.939 40.6418 87.1537C42.5384 85.2392 44.4429 83.3326 46.3552 81.4338C46.6021 81.1574 46.9305 80.9668 47.2929 80.8897C47.6553 80.8126 48.0328 80.853 48.3707 81.005C49.0378 81.2744 49.4417 81.911 49.5722 82.7167Z" fill="white"/>
<path d="M81.7658 64.559C81.0652 64.5606 80.3712 64.4237 79.7236 64.1562C79.0761 63.8888 78.4877 63.496 77.9922 63.0005C77.4968 62.5049 77.1041 61.9164 76.8366 61.2686C76.5691 60.6208 76.4322 59.9266 76.4336 59.2257C76.4309 58.5199 76.5676 57.8204 76.836 57.1676C77.1043 56.5148 77.499 55.9214 77.9972 55.4217C78.4955 54.9219 79.0876 54.5256 79.7395 54.2554C80.3914 53.9853 81.0902 53.8467 81.7958 53.8477C83.2108 53.8582 84.5649 54.425 85.5658 55.4257C86.5667 56.4263 87.134 57.7806 87.1453 59.1962C87.1459 59.9022 87.0071 60.6013 86.7367 61.2535C86.4663 61.9056 86.0698 62.4979 85.5699 62.9963C85.07 63.4946 84.4766 63.8892 83.8237 64.1574C83.1709 64.4256 82.4715 64.5621 81.7658 64.559Z" fill="white"/>
</g>
<defs>
<clipPath id="clip0_1627_8">
<rect width="61" height="61" fill="white" transform="translate(40 40)"/>
</clipPath>
</defs>
</svg>
