<svg width="122" height="85" viewBox="0 0 122 85" fill="none" xmlns="http://www.w3.org/2000/svg">
<path d="M115.728 25.4875C109.05 18.6912 102.354 11.9078 95.5041 5.28751C88.5171 -1.46447 77.4174 -1.76072 69.9513 4.46094C67.0214 6.90189 64.5142 9.79978 61.7862 12.4606C61.6462 12.5971 61.5311 12.7089 61.431 12.8013L60.9439 13.2748L60.5888 12.9196C60.4677 12.8199 60.3242 12.6773 60.1348 12.4879C57.9294 10.2829 55.7236 8.07807 53.5175 5.87348C45.7063 -1.90662 33.5684 -1.91845 25.772 5.85543C19.4116 12.1975 13.0601 18.5477 6.71761 24.906C1.80345 29.8575 -0.0192795 35.8264 1.25032 42.6701C3.84369 56.6443 20.904 63.0311 32.0916 54.2531C34.6681 52.2312 36.8327 49.7784 39.1464 47.4825C39.5326 47.0992 39.727 47.0595 40.1298 47.4697C42.4776 49.8598 44.8438 52.2311 47.2283 54.5837C50.7701 58.1251 55.5459 60.1572 60.5536 60.2534C65.5613 60.3495 70.4117 58.5024 74.0868 55.0995C75.5396 53.7535 76.9445 52.3549 78.3316 50.9382L82.1114 47.2303C82.383 47.1513 82.642 47.2824 82.9696 47.7089C83.4209 48.2333 83.904 48.7296 84.4162 49.1948C86.5248 51.33 88.5328 53.6044 91.1122 55.1821C97.4792 59.0758 104.12 59.4514 110.713 55.9536C117.425 52.3925 120.95 46.6875 121.028 38.5343C120.997 33.8045 119.376 29.199 115.728 25.4875ZM31.8279 42.4981C29.978 44.3588 28.2017 46.2916 26.0129 47.7811C24.3648 48.9328 22.3941 49.5325 20.3838 49.494C15.8934 49.4644 12.123 46.9415 10.4732 42.9649C8.76229 38.8415 9.5575 34.4943 12.6631 31.3765C19.1603 24.8513 25.6718 18.3406 32.1976 11.8442C34.1713 9.89621 36.8294 8.79867 39.6025 8.78667C42.3756 8.77466 45.0431 9.84915 47.0336 11.78C49.4784 14.1502 51.8347 16.6115 54.2579 19.0043C54.371 19.1038 54.4592 19.2283 54.5157 19.368L54.6284 19.4843L54.5006 19.6521C54.4384 19.7748 54.3544 19.8851 54.2526 19.9776C53.0451 21.1786 51.8616 22.4044 50.6595 23.6098C44.3808 29.9061 38.1033 36.2022 31.8271 42.4981H31.8279ZM111.828 41.7396C110.72 45.563 108.237 48.1099 104.331 49.1599C103.436 49.3971 102.514 49.5105 101.589 49.497C100.214 49.5136 98.8507 49.2546 97.5783 48.7352C96.3058 48.2158 95.1504 47.4466 94.1803 46.473C92.4342 44.7464 90.7148 42.9956 88.9684 41.2712L88.5763 40.8841L95.3321 34.2522L88.9279 28.1102L82.3283 34.7175L73.7169 43.3374L73.7071 43.3268C71.7193 45.3511 69.7302 47.3741 67.5663 49.2161C65.3032 51.1397 64.2493 51.4819 60.8599 51.5061C58.0614 51.6852 55.4654 50.3549 53.247 48.2211C50.8548 45.9193 48.5488 43.5283 46.189 41.1927C45.8782 40.8853 45.9206 40.716 46.2041 40.4333C51.0096 35.6428 55.807 30.844 60.5962 26.0371C60.6222 26.0108 60.6456 25.9909 60.6696 25.9696L67.4002 19.2425C67.466 19.1586 67.5377 19.0794 67.6148 19.0057C70.0368 16.6491 72.3958 14.2292 74.8015 11.8566C76.7916 9.88085 79.4829 8.7733 82.2871 8.77607C85.0914 8.77885 87.7805 9.89171 89.7666 11.8714C91.5263 13.6204 93.2842 15.3715 95.0403 17.1247L95.0421 17.1229L95.9477 18.0282C96.4569 18.5365 96.9665 19.0442 97.4765 19.5515L97.4739 19.5544L103.83 25.9098C105.615 27.7027 107.398 29.4981 109.178 31.296C112.073 34.225 112.973 37.7846 111.827 41.7396H111.828Z" fill="#C02827"/>
<path opacity="0.43" d="M88.5773 40.8838L92.2387 44.5301L85.9218 50.7382L82.1133 47.23L88.5773 40.8838Z" fill="#8C0B17"/>
<path opacity="0.43" d="M45.964 40.8291L49.5423 44.558L43.3091 50.6841L39.5 47.1759L45.964 40.8291Z" fill="#8C0B17"/>
<path opacity="0.43" d="M57.278 9.62891L60.9397 13.2752L54.6231 19.4833L51.0273 15.7659L57.278 9.62891Z" fill="#8C0B17"/>
<path d="M91.6267 36.064C94.0871 36.064 96.0816 34.0695 96.0816 31.6092C96.0816 29.1488 94.0871 27.1543 91.6267 27.1543C89.1664 27.1543 87.1719 29.1488 87.1719 31.6092C87.1719 34.0695 89.1664 36.064 91.6267 36.064Z" fill="#C02827"/>
<path d="M16.5357 68.2197C14.7792 68.2197 13.4827 69.1667 13.0678 70.753L11.1305 78.0306L9.15748 70.6974C8.77008 69.1227 7.52978 68.2197 5.75411 68.2197C3.89794 68.2197 2.60555 69.2943 2.29569 71.1031L0.160156 84.6858H4.66237L6.1125 74.5861L8.29657 82.4301C8.60554 83.6923 9.71474 84.5076 11.1217 84.5076C11.768 84.5367 12.4043 84.3408 12.9224 83.9533C13.4404 83.5658 13.8081 83.0107 13.9627 82.3825L16.1172 74.6947L17.3472 84.6858H21.8529L19.9071 71.1804C19.6493 69.3263 18.3892 68.2197 16.5357 68.2197Z" fill="#C02827"/>
<path d="M27.847 78.6518H34.931V74.5497H27.847V72.6145H35.3989V68.5127H26.8757C24.6407 68.5127 23.4102 69.7196 23.4102 71.9113V81.3123C23.4102 83.4899 24.6407 84.689 26.8757 84.689H35.5321V80.5869H27.8464L27.847 78.6518Z" fill="#C02827"/>
<path d="M44.5308 72.4787C45.1827 72.4424 45.8311 72.5969 46.3965 72.9235C46.9619 73.2501 47.4197 73.7345 47.714 74.3174L48.0052 74.8312L51.6453 72.7803L51.4156 72.2843C50.2792 69.8294 47.6275 68.2432 44.6631 68.2432C42.4411 68.2432 40.3102 69.1258 38.739 70.697C37.1678 72.2682 36.2852 74.3991 36.2852 76.6211C36.2852 78.843 37.1678 80.974 38.739 82.5452C40.3102 84.1163 42.4411 84.999 44.6631 84.999C47.5793 84.999 50.2097 83.7619 51.529 81.7711L51.6272 81.6231V76.4411H47.2768L47.3014 80.0981C46.7095 80.5989 45.8244 80.8522 44.6648 80.8522C42.3671 80.8522 40.8235 79.1653 40.8235 76.6545C40.8232 74.2349 42.3825 72.4787 44.5308 72.4787Z" fill="#C02827"/>
<path d="M60.6428 68.2432C55.8603 68.2432 52.2539 71.8401 52.2539 76.6098C52.2539 81.3796 55.8603 84.9768 60.6428 84.9768C65.4371 84.9768 69.0541 81.3796 69.0541 76.6098C69.0541 71.8401 65.4394 68.2432 60.6428 68.2432ZM64.5066 76.6098C64.5066 78.9138 62.8094 80.7184 60.6428 80.7184C58.4762 80.7184 56.7792 78.9132 56.7792 76.6098C56.7792 74.3065 58.4762 72.5009 60.6428 72.5009C62.8455 72.5009 64.5066 74.2674 64.5066 76.6098V76.6098Z" fill="#C02827"/>
<path d="M82.0238 76.5652C82.5348 76.1741 82.945 75.6666 83.2202 75.0849C83.4953 74.5032 83.6275 73.8642 83.6056 73.221C83.6056 70.314 81.0827 68.5078 77.0209 68.5078H70.6367V84.6851H76.9765C81.2884 84.6851 83.7616 82.9428 83.7616 79.905C83.7625 78.3915 83.1659 77.2568 82.0238 76.5652ZM75.0732 74.746V72.3655H77.1993C79.1694 72.3655 79.1694 73.2113 79.1694 73.4901C79.1694 73.9295 79.1694 74.7472 77.1771 74.7472L75.0732 74.746ZM75.0732 78.6031H77.1771C79.3251 78.6031 79.3251 79.2015 79.3251 79.6821C79.3251 80.0825 79.3251 80.828 77.1549 80.828H75.0732V78.6031Z" fill="#C02827"/>
<path d="M92.0787 68.2206C91.2207 68.2049 90.3815 68.4728 89.6913 68.9827C89.001 69.4926 88.4983 70.2159 88.261 71.0406L84.0586 84.6866H88.6268L89.496 81.6328L94.6833 81.6138L95.5516 84.6866H100.12L95.918 71.0403C95.6773 70.2135 95.1707 69.4891 94.4766 68.9793C93.7825 68.4695 92.9397 68.2028 92.0787 68.2206ZM93.4992 77.5322H90.681L92.0994 72.6147L93.4992 77.5322Z" fill="#C02827"/>
<path d="M111.701 78.1975C113.288 77.3863 114.237 75.808 114.237 73.872C114.237 70.5663 111.714 68.5127 107.652 68.5127H101.289V84.6893H105.679L105.702 79.8998H106.382C107.765 79.8998 108.252 80.4271 108.882 81.6891L110.383 84.6893H115.217L113.35 80.8699C112.779 79.729 112.306 78.8394 111.701 78.1975ZM109.711 74.2061C109.711 75.7033 108.135 75.8199 107.652 75.8199H105.708L105.723 72.7039H107.697C108.615 72.7036 109.711 72.9646 109.711 74.2061V74.2061Z" fill="#C02827"/>
<path d="M121.12 68.5127H116.684V84.6893H121.12V68.5127Z" fill="#C02827"/>
</svg>
