<svg width="140" height="140" viewBox="0 0 140 140" fill="none" xmlns="http://www.w3.org/2000/svg">
<rect width="140" height="140" rx="70" fill="#C12928"/>
<g clip-path="url(#clip0_1627_7)">
<path d="M47.3365 84.0297C45.0887 83.5285 43.0018 83.0633 40.9139 82.5959C39.535 82.2891 38.1539 81.9918 36.7773 81.6758C35.6183 81.4093 35.246 80.7573 35.6363 79.6357C36.3374 77.6206 37.0591 75.6125 37.7786 73.604C38.1463 72.5777 38.538 72.3317 39.6559 72.4122C44.0559 72.7305 48.4551 73.0632 52.8572 73.3522C53.306 73.3716 53.7501 73.2517 54.1278 73.0092C56.2469 71.5786 58.3321 70.098 60.4277 68.633C60.6232 68.4965 60.8124 68.3513 61.0681 68.1637L52.6133 64.32C50.264 63.2518 47.9207 62.1699 45.5615 61.1238C44.8175 60.7937 44.3985 60.3147 44.353 59.4835C44.1921 56.5639 45.876 53.8322 49.9017 54.1691C52.2938 54.3692 54.6594 54.9263 57.0222 55.3945C62.5898 56.4959 68.1516 57.6237 73.7076 58.778C73.961 58.843 74.2262 58.8498 74.483 58.7979C74.7398 58.746 74.9815 58.6368 75.1897 58.4786C80.8719 54.5356 86.5811 50.6314 92.258 46.6814C94.4558 45.1535 96.8402 44.2092 99.5239 44.0904C104.433 43.8734 107.509 48.1322 105.818 52.7835C105.096 54.8413 103.751 56.6292 101.968 57.902C96.4466 61.8164 90.866 65.6481 85.1576 69.6168C85.2091 69.2245 85.2347 68.9788 85.2739 68.7358C85.5741 66.8473 85.8863 64.9609 86.1725 63.0705C86.2911 62.2872 85.8412 61.7633 85.1586 61.8325C84.4863 61.9008 84.3029 62.3827 84.2145 62.9472C83.908 64.9074 83.5992 66.868 83.2883 68.829C81.8873 77.6977 80.4843 86.566 79.0795 95.4342C78.8809 96.6818 78.6302 97.9494 77.7564 98.9225C77.366 99.3393 76.8514 99.6212 76.2884 99.7265C75.1856 99.9 74.9361 99.6458 74.8508 98.5446C74.4285 93.0396 74.0136 87.5345 73.6059 82.029C73.3642 78.8174 73.1218 75.606 72.8785 72.3949C72.8684 72.2254 72.8464 72.0569 72.8127 71.8905C72.6846 71.3075 72.3118 70.9966 71.7133 71.0708C71.5897 71.0786 71.469 71.1122 71.3593 71.1695C71.2495 71.2268 71.1531 71.3064 71.0764 71.4031C70.9997 71.4998 70.9444 71.6115 70.9142 71.7308C70.884 71.8501 70.8795 71.9743 70.901 72.0953C70.9829 73.473 71.084 74.8494 71.1778 76.2265C71.1677 76.6383 71.2006 77.05 71.276 77.4548C71.6324 78.6895 71.0549 79.3309 70.05 80.0138C63.7881 84.2737 57.5774 88.6101 51.3508 92.92C50.1758 93.733 49.5578 93.6206 48.7379 92.4454C47.5874 90.7966 46.4389 89.1464 45.2923 87.4947C44.5884 86.4773 44.6981 85.8711 45.6986 85.1659C46.1948 84.8167 46.6965 84.4736 47.3365 84.0297Z" fill="white"/>
</g>
<defs>
<clipPath id="clip0_1627_7">
<rect width="75" height="51" fill="white" transform="translate(31.2266 55.7188) rotate(-9.74584)"/>
</clipPath>
</defs>
</svg>
