<svg width="140" height="140" viewBox="0 0 140 140" fill="none" xmlns="http://www.w3.org/2000/svg">
<rect width="140" height="140" rx="70" fill="#C12928"/>
<g clip-path="url(#clip0_1627_6)">
<path d="M61.603 81.3002L83.8223 54.426L83.7618 54.3511C83.6564 54.4129 83.5549 54.481 83.4578 54.5551C74.0939 62.5912 64.7331 70.6304 55.3753 78.6726C55.2546 78.8008 55.0974 78.8885 54.9252 78.9238C54.753 78.959 54.5742 78.94 54.4131 78.8695C50.0507 77.3543 45.6838 75.8525 41.3124 74.3643C40.5726 74.1117 40.0765 73.6574 40.0076 72.862C39.9363 72.0384 40.3748 71.5085 41.0845 71.1363C57.5234 62.5239 73.9597 53.9067 90.3936 45.2848C91.0661 44.9314 91.7116 44.8651 92.3363 45.3264C92.961 45.7878 93.0745 46.4296 92.9618 47.1787C92.206 52.2101 91.4728 57.244 90.727 62.2764C90.0168 67.0695 89.3035 71.8618 88.5873 76.6536C88.0354 80.3679 87.4965 84.0841 86.9321 87.7963C86.7434 89.0373 85.8002 89.6155 84.6331 89.2161C77.0358 86.6161 69.4407 84.0103 61.8476 81.3987C61.7865 81.38 61.7283 81.3519 61.603 81.3002Z" fill="white"/>
<path d="M68.2875 87.1243C68.1927 87.2725 68.1256 87.3906 68.0458 87.4985C66.1803 90.0504 64.3147 92.6021 62.449 95.1537C62.0447 95.7082 61.5417 96.059 60.8352 95.9899C59.9138 95.8999 59.3388 95.2165 59.3363 94.2019C59.3289 91.243 59.3334 88.284 59.3332 85.3242V84.0547L68.2875 87.1243Z" fill="white"/>
</g>
<defs>
<clipPath id="clip0_1627_6">
<rect width="53" height="51" fill="white" transform="translate(40 45)"/>
</clipPath>
</defs>
</svg>
